<svg xmlns="http://www.w3.org/2000/svg" viewBox="0 0 220 240" role="img" aria-label="FoodRats — Crowned Crew">
  <title>FoodRats — Crowned Crew</title>
  
    <path d="M82 29.2 L87.6 14.08 L96 16.6 L104.4 6.52 L110 15.339999999999998 L115.6 6.52 L124 16.6 L132.4 14.08 L138 29.2 Z" fill="#C97E1A" stroke="#1A1C18" stroke-width="1.5" stroke-linejoin="round"></path>
    <rect x="82" y="29.2" width="56" height="6.3" fill="#C97E1A" stroke="#1A1C18" stroke-width="1.5"></rect>
    <circle cx="87.6" cy="14.08" r="3.024" fill="#E6B873"></circle>
    <circle cx="104.4" cy="6.52" r="3.024" fill="#E6B873"></circle>
    <circle cx="110" cy="15.339999999999998" r="4.536" fill="#B0561E"></circle>
    <circle cx="115.6" cy="6.52" r="3.024" fill="#E6B873"></circle>
    <circle cx="132.4" cy="14.08" r="3.024" fill="#E6B873"></circle>
  
    <ellipse cx="49.6" cy="47.472" rx="7.840000000000001" ry="8.232000000000001" fill="#E8E6DE" stroke="#1A1C18" stroke-width="2"></ellipse>
    <ellipse cx="66.4" cy="47.472" rx="7.840000000000001" ry="8.232000000000001" fill="#E8E6DE" stroke="#1A1C18" stroke-width="2"></ellipse>
    <ellipse cx="58" cy="41.984" rx="8.232000000000001" ry="9.408000000000001" fill="#E8E6DE" stroke="#1A1C18" stroke-width="2"></ellipse>
    <rect x="44" y="52.96" width="28" height="5.04" fill="#E8E6DE" stroke="#1A1C18" stroke-width="2" rx="2"></rect>
  
    <g>
      
      <ellipse cx="58" cy="96" rx="23.1" ry="24.200000000000003" fill="#B0561E"></ellipse>
      
      <ellipse cx="43.7" cy="77.3" rx="7.15" ry="8.25" fill="#B0561E"></ellipse>
      <ellipse cx="72.3" cy="77.3" rx="7.15" ry="8.25" fill="#B0561E"></ellipse>
      
      <ellipse cx="43.7" cy="78.4" rx="3.8500000000000005" ry="4.95" fill="#E6A47B"></ellipse>
      <ellipse cx="72.3" cy="78.4" rx="3.8500000000000005" ry="4.95" fill="#E6A47B"></ellipse>
      
      <ellipse cx="50.3" cy="93.8" rx="2.2" ry="2.75" fill="#1A1C18"></ellipse>
      <ellipse cx="65.7" cy="93.8" rx="2.2" ry="2.75" fill="#1A1C18"></ellipse>
      
      <ellipse cx="58" cy="105.9" rx="2.75" ry="2.2" fill="#1A1C18"></ellipse>
    </g>
  
    <ellipse cx="153.6" cy="47.472" rx="7.840000000000001" ry="8.232000000000001" fill="#E8E6DE" stroke="#1A1C18" stroke-width="2"></ellipse>
    <ellipse cx="170.4" cy="47.472" rx="7.840000000000001" ry="8.232000000000001" fill="#E8E6DE" stroke="#1A1C18" stroke-width="2"></ellipse>
    <ellipse cx="162" cy="41.984" rx="8.232000000000001" ry="9.408000000000001" fill="#E8E6DE" stroke="#1A1C18" stroke-width="2"></ellipse>
    <rect x="148" y="52.96" width="28" height="5.04" fill="#E8E6DE" stroke="#1A1C18" stroke-width="2" rx="2"></rect>
  
    <g>
      
      <ellipse cx="162" cy="96" rx="23.1" ry="24.200000000000003" fill="#B0561E"></ellipse>
      
      <ellipse cx="147.7" cy="77.3" rx="7.15" ry="8.25" fill="#B0561E"></ellipse>
      <ellipse cx="176.3" cy="77.3" rx="7.15" ry="8.25" fill="#B0561E"></ellipse>
      
      <ellipse cx="147.7" cy="78.4" rx="3.8500000000000005" ry="4.95" fill="#E6A47B"></ellipse>
      <ellipse cx="176.3" cy="78.4" rx="3.8500000000000005" ry="4.95" fill="#E6A47B"></ellipse>
      
      <ellipse cx="154.3" cy="93.8" rx="2.2" ry="2.75" fill="#1A1C18"></ellipse>
      <ellipse cx="169.7" cy="93.8" rx="2.2" ry="2.75" fill="#1A1C18"></ellipse>
      
      <ellipse cx="162" cy="105.9" rx="2.75" ry="2.2" fill="#1A1C18"></ellipse>
    </g>
  
    <ellipse cx="96.8" cy="61.456" rx="12.32" ry="12.936000000000002" fill="#E8E6DE" stroke="#1A1C18" stroke-width="2"></ellipse>
    <ellipse cx="123.2" cy="61.456" rx="12.32" ry="12.936000000000002" fill="#E8E6DE" stroke="#1A1C18" stroke-width="2"></ellipse>
    <ellipse cx="110" cy="52.832" rx="12.936000000000002" ry="14.783999999999999" fill="#E8E6DE" stroke="#1A1C18" stroke-width="2"></ellipse>
    <rect x="88" y="70.08" width="44" height="7.92" fill="#E8E6DE" stroke="#1A1C18" stroke-width="2" rx="2"></rect>
  
    <g>
      
      <ellipse cx="110" cy="126" rx="33.6" ry="35.2" fill="#B0561E"></ellipse>
      
      <ellipse cx="89.2" cy="98.8" rx="10.4" ry="12" fill="#B0561E"></ellipse>
      <ellipse cx="130.8" cy="98.8" rx="10.4" ry="12" fill="#B0561E"></ellipse>
      
      <ellipse cx="89.2" cy="100.4" rx="5.6000000000000005" ry="7.2" fill="#E6A47B"></ellipse>
      <ellipse cx="130.8" cy="100.4" rx="5.6000000000000005" ry="7.2" fill="#E6A47B"></ellipse>
      
      <ellipse cx="98.8" cy="122.8" rx="3.2" ry="4" fill="#1A1C18"></ellipse>
      <ellipse cx="121.2" cy="122.8" rx="3.2" ry="4" fill="#1A1C18"></ellipse>
      
      <ellipse cx="110" cy="140.4" rx="4" ry="3.2" fill="#1A1C18"></ellipse>
    </g>
  <g fill="#B0561E">
    <circle cx="96" cy="226" r="3"></circle>
    <circle cx="110" cy="226" r="3"></circle>
    <circle cx="124" cy="226" r="3"></circle>
  </g>
</svg>